<?xml version="1.0" encoding="UTF-8"?>
<svg id="Layer_2" data-name="Layer 2" xmlns="http://www.w3.org/2000/svg" viewBox="0 0 667.18 259.58">
  <defs>
    <style>
      .cls-1 {
        fill: #111;
      }

      .cls-2 {
        fill: #efefef;
      }
    </style>
  </defs>
  <g id="Layer_1-2" data-name="Layer 1">
    <g>
      <g>
        <path class="cls-1" d="M228.08,188.57v-117.57c0-4.37-2.33-8.4-6.11-10.59L120.15,1.64c-3.78-2.18-8.44-2.18-12.22,0L6.11,60.42c-3.78,2.18-6.11,6.22-6.11,10.59v117.57c0,4.37,2.33,8.4,6.11,10.59l101.82,58.78c3.78,2.18,8.44,2.18,12.22,0l101.82-58.78c3.78-2.18,6.11-6.22,6.11-10.59Z"/>
        <path class="cls-2" d="M184.13,160.31l-37.11-21.43c.8-2.9,1.23-5.94,1.23-9.09s-.43-6.2-1.23-9.09l37.11-21.43c2.26-1.31,3.04-4.2,1.73-6.47l-3.88-6.72c-1.31-2.26-4.2-3.04-6.47-1.73l-37.12,21.43c-4.27-4.33-9.68-7.53-15.75-9.1v-42.86c0-2.61-2.11-4.72-4.72-4.72h-7.79c-2.61,0-4.72,2.11-4.72,4.72v42.86c-6.07,1.58-11.48,4.77-15.75,9.1l-37.12-21.43c-2.26-1.31-5.16-.53-6.46,1.73l-3.88,6.72c-1.31,2.26-.53,5.16,1.73,6.46l37.11,21.43c-.8,2.9-1.23,5.94-1.23,9.09s.43,6.2,1.23,9.09l-37.11,21.43c-2.26,1.31-3.04,4.2-1.73,6.47l3.88,6.72c1.31,2.26,4.2,3.04,6.47,1.73l37.12-21.43c4.27,4.33,9.68,7.53,15.75,9.1v42.86c0,2.61,2.11,4.72,4.72,4.72h7.79c2.61,0,4.72-2.11,4.72-4.72v-42.86c6.07-1.58,11.48-4.77,15.75-9.1l37.12,21.43c2.26,1.31,5.16.53,6.46-1.73l3.88-6.72c1.31-2.26.53-5.16-1.73-6.46Z"/>
      </g>
      <g>
        <path class="cls-1" d="M290.02,194.63V62.95h30.48v106.04h37.87v25.64h-68.35Z"/>
        <path class="cls-1" d="M409.11,196.63c-9,0-16.78-1.83-23.32-5.48-6.54-3.65-11.56-8.85-15.06-15.6-3.5-6.75-5.25-14.9-5.25-24.46V62.95h30.39v88.24c0,4.26.52,7.79,1.55,10.59,1.03,2.8,2.52,4.91,4.47,6.34,1.95,1.43,4.35,2.14,7.21,2.14s5.38-.71,7.39-2.14c2.01-1.43,3.51-3.54,4.52-6.34,1-2.8,1.51-6.33,1.51-10.59V62.95h30.39v88.15c0,9.49-1.73,17.64-5.2,24.46-3.47,6.81-8.49,12.03-15.06,15.65-6.57,3.62-14.42,5.43-23.54,5.43Z"/>
        <path class="cls-1" d="M466.33,194.63V62.95h39.33l19.16,86.6h.64l19.26-86.6h39.24v131.68h-26.56v-86.33h-14.33l22.81-41.98-28.93,128.31h-23.54l-29.11-128.31,22.81,41.98h-14.33v86.33h-26.46Z"/>
        <path class="cls-1" d="M597.56,194.63V62.95h69.63v25.64h-39.24v27.92h37.23v23.63h-37.23v28.84h39.24v25.64h-69.63Z"/>
      </g>
    </g>
  </g>
</svg>